# Blender v2.80 (sub 49) OBJ File: 'rocket_launcher.blend'
# www.blender.org
mtllib rocket.mtl
o Rocket_Cone
v -0.445010 0.000000 -0.619164
v -0.445010 0.437815 -0.437815
v -0.445010 0.619164 0.000000
v -0.445010 0.437815 0.437815
v -0.445010 -0.000000 0.619164
v -0.445010 -0.437815 0.437815
v -0.445010 -0.619164 -0.000000
v -0.445010 -0.437815 -0.437815
v -1.222771 -0.000000 0.000000
v 0.597858 0.000000 -0.619164
v 0.597858 0.437815 -0.437815
v 0.597858 0.619164 0.000000
v 0.597858 0.437815 0.437815
v 0.597858 0.000000 0.619164
v 0.597858 -0.437815 0.437815
v 0.597858 -0.619164 -0.000000
v 0.597858 -0.437815 -0.437815
vt 0.250000 0.490000
vt 0.250000 0.250000
vt 0.419706 0.419706
vt 0.490000 0.250000
vt 0.419706 0.080294
vt 0.250000 0.010000
vt 0.080294 0.080294
vt 0.010000 0.250000
vt 0.080294 0.419706
vt 0.250000 0.490000
vt 0.080294 0.419706
vt 0.750000 0.490000
vt 0.919706 0.419706
vt 0.990000 0.250000
vt 0.919706 0.080294
vt 0.750000 0.010000
vt 0.580294 0.080294
vt 0.510000 0.250000
vt 0.580294 0.419706
vt 0.010000 0.250000
vt 0.080294 0.080294
vt 0.419706 0.419706
vt 0.250000 0.010000
vt 0.419706 0.080294
vt 0.490000 0.250000
vn -0.5925 0.3083 -0.7443
vn -0.5925 0.7443 -0.3083
vn -0.5925 0.7443 0.3083
vn -0.5925 0.3083 0.7443
vn -0.5925 -0.3083 0.7443
vn -0.5925 -0.7443 0.3083
vn -0.5925 -0.7443 -0.3083
vn -0.5925 -0.3083 -0.7443
vn 0.0000 -0.3827 -0.9239
vn 1.0000 0.0000 0.0000
vn 0.0000 -0.9239 -0.3827
vn 0.0000 -0.9239 0.3827
vn -0.0000 0.3827 -0.9239
vn 0.0000 -0.3827 0.9239
vn -0.0000 0.3827 0.9239
vn -0.0000 0.9239 0.3827
vn -0.0000 0.9239 -0.3827
usemtl Rocket
s off
f 1/1/1 9/2/1 2/3/1
f 2/3/2 9/2/2 3/4/2
f 3/4/3 9/2/3 4/5/3
f 4/5/4 9/2/4 5/6/4
f 5/6/5 9/2/5 6/7/5
f 6/7/6 9/2/6 7/8/6
f 7/8/7 9/2/7 8/9/7
f 8/9/8 9/2/8 1/1/8
f 8/9/9 1/1/9 10/10/9 17/11/9
f 10/12/10 11/13/10 12/14/10 13/15/10 14/16/10 15/17/10 16/18/10 17/19/10
f 7/8/11 8/9/11 17/11/11 16/20/11
f 6/7/12 7/8/12 16/20/12 15/21/12
f 1/1/13 2/3/13 11/22/13 10/10/13
f 5/6/14 6/7/14 15/21/14 14/23/14
f 4/5/15 5/6/15 14/23/15 13/24/15
f 3/4/16 4/5/16 13/24/16 12/25/16
f 2/3/17 3/4/17 12/25/17 11/22/17
